<svg width="100%" height="100%" overflow="visible" style="display: block;" viewBox="0 0 868.499 96" fill="none" xmlns="http://www.w3.org/2000/svg">
<path id="Union" d="M751.752 0C777.183 0 795.558 22.7686 796.623 44.0723C796.623 45.2704 795.69 46.0693 794.492 46.0693H758.676C758.143 46.0693 757.61 45.8027 757.211 45.4033C755.613 42.8737 754.415 41.4092 751.22 41.4092C746.826 41.4092 743.897 45.0038 743.896 48.5986C743.896 52.7262 746.826 55.9219 751.22 55.9219C753.616 55.6555 755.214 54.1908 756.146 52.8594C756.546 52.3272 757.078 52.0607 757.61 52.0605H794.492C795.69 52.0605 796.623 52.8597 796.623 53.9248C795.691 76.4268 777.316 96 751.752 96C725.389 95.9999 703.952 74.0299 703.952 47.7998C703.819 21.1704 725.389 0.000113223 751.752 0ZM492.278 1.33105C493.343 1.33125 494.275 2.26403 494.275 3.3291L493.876 50.1963C493.876 56.5874 500.4 56.7205 500.4 50.1963L500.001 3.3291C500.001 2.26392 500.933 1.33105 501.998 1.33105H538.613C539.678 1.33105 540.61 2.26392 540.61 3.3291L540.744 58.4521C540.877 107.983 453.665 108.249 453.665 58.3184V3.3291C453.665 2.26399 454.597 1.33116 455.662 1.33105H492.278ZM31.6895 1.33105C101.459 1.33128 103.323 94.5351 38.3467 94.5352H1.99707C0.79891 94.5351 0.000120433 93.7362 0 92.5381V3.3291C0 2.13083 0.79882 1.33112 1.99707 1.33105H31.6895ZM153.249 1.19824C154.447 1.19824 155.246 1.99711 155.246 3.19531V25.4316C155.246 26.6298 154.447 27.4287 153.249 27.4287H127.951C126.886 27.4287 125.954 28.3606 125.954 29.4258V35.417C125.954 36.4822 126.886 37.415 127.951 37.415H142.997C144.195 37.4152 144.994 38.2139 144.994 39.4121V54.9902C144.994 56.1884 144.195 56.9871 142.997 56.9873H127.951C126.886 56.9873 125.954 57.9193 125.954 58.9844V64.9766C125.954 66.0416 126.886 66.9736 127.951 66.9736H155.513C156.711 66.9737 157.51 67.7724 157.51 68.9707V92.5381C157.51 93.7362 156.711 94.5351 155.513 94.5352H90.9355C89.7375 94.535 88.9386 93.7362 88.9385 92.5381V3.3291C88.9385 2.13089 89.7374 1.3312 90.9355 1.33105H117.299C117.432 1.33105 117.565 1.33139 117.565 1.19824H153.249ZM225.805 1.19824C227.003 1.1984 227.802 1.99723 227.802 3.19531V25.4316C227.802 26.6296 227.003 27.4285 225.805 27.4287H200.506C199.441 27.4289 198.509 28.3607 198.509 29.4258V35.417C198.509 36.4821 199.441 37.4148 200.506 37.415H215.552C216.75 37.415 217.549 38.2138 217.549 39.4121V54.9902C217.549 56.1885 216.75 56.9873 215.552 56.9873H200.506C199.441 56.9875 198.509 57.9194 198.509 58.9844V64.9766C198.509 66.0415 199.441 66.9734 200.506 66.9736H228.067C229.266 66.9736 230.065 67.7724 230.065 68.9707V92.5381C230.065 93.7363 229.266 94.5352 228.067 94.5352H163.491C162.293 94.5352 161.494 93.7363 161.494 92.5381V3.3291C161.494 2.13078 162.293 1.33105 163.491 1.33105H189.854C189.988 1.33105 190.121 1.33135 190.121 1.19824H225.805ZM271.464 1.33105C290.637 1.33112 307.414 9.32041 307.414 32.6211C307.414 57.3865 290.903 68.1718 271.464 68.1719C270.532 68.1719 269.732 69.1038 269.732 70.1689V92.5381C269.732 93.7363 268.934 94.5352 267.735 94.5352H236.046C234.848 94.535 234.049 93.7361 234.049 92.5381V3.3291C234.049 2.13091 234.848 1.33123 236.046 1.33105H271.464ZM373.744 1.33105C374.942 1.33105 375.741 2.13078 375.741 3.3291V28.0938C375.741 29.2921 374.942 30.0918 373.744 30.0918H351.109C350.044 30.0918 349.111 31.0237 349.111 32.0889V41.8086C349.111 42.8737 350.044 43.8057 351.109 43.8057H368.418C369.616 43.8057 370.415 44.6045 370.415 45.8027V64.0439C370.415 65.2423 369.616 66.041 368.418 66.041H351.109C350.044 66.041 349.111 66.9739 349.111 68.0391V92.5381C349.111 93.7363 348.312 94.5352 347.114 94.5352H312.763C311.564 94.5352 310.766 93.7363 310.766 92.5381V3.3291C310.766 2.13078 311.564 1.33105 312.763 1.33105H373.744ZM415.379 1.33105C416.577 1.33111 417.376 2.13082 417.376 3.3291V62.9785C417.376 64.0436 418.308 64.9764 419.373 64.9766H447.733C448.932 64.9766 449.73 65.7753 449.73 66.9736V92.5381C449.73 93.7363 448.932 94.5352 447.733 94.5352H381.026C379.828 94.535 379.029 93.7362 379.029 92.5381V3.3291C379.029 2.13086 379.828 1.33116 381.026 1.33105H415.379ZM608.995 1.19824C610.193 1.19846 610.992 1.99727 610.992 3.19531V25.4316C610.992 26.6296 610.193 27.4285 608.995 27.4287H583.696C582.631 27.4289 581.699 28.3607 581.699 29.4258V35.417C581.699 36.4821 582.631 37.4149 583.696 37.415H598.742C599.941 37.415 600.739 38.2138 600.739 39.4121V54.9902C600.739 56.1885 599.94 56.9873 598.742 56.9873H583.696C582.631 56.9875 581.699 57.9193 581.699 58.9844V64.9766C581.699 66.0415 582.631 66.9735 583.696 66.9736H611.258C612.456 66.9736 613.255 67.7724 613.255 68.9707V92.5381C613.255 93.7363 612.456 94.5352 611.258 94.5352H546.682C545.483 94.5352 544.685 93.7363 544.685 92.5381V3.3291C544.685 2.13078 545.483 1.33105 546.682 1.33105H573.045C573.178 1.33105 573.311 1.33131 573.311 1.19824H608.995ZM652.523 1.33105C653.722 1.33105 654.388 1.99731 654.654 3.0625L662.11 33.6865C662.377 34.4852 662.909 35.1511 663.441 35.1514C663.841 35.1514 664.24 34.2188 664.24 33.0205L663.575 3.3291C663.575 2.13078 664.374 1.33105 665.572 1.33105H698.593C699.791 1.33105 700.59 2.13078 700.59 3.3291V92.5381C700.59 93.7363 699.791 94.5352 698.593 94.5352H665.306C664.107 94.5351 663.442 93.8688 663.176 92.8037L655.054 61.248C654.787 60.316 654.388 59.7832 653.988 59.7832C653.589 59.7832 653.322 60.5826 653.322 61.9141L654.255 92.5381C654.255 93.7363 653.455 94.5352 652.257 94.5352H619.236C618.038 94.535 617.239 93.7362 617.239 92.5381V3.3291C617.239 2.13088 618.038 1.33119 619.236 1.33105H652.523ZM864.238 1.19824C865.436 1.1983 866.235 1.99715 866.235 3.19531V25.4316C866.235 26.6297 865.436 27.4287 864.238 27.4287H838.94C837.875 27.4287 836.942 28.3606 836.942 29.4258V35.417C836.942 36.4822 837.875 37.415 838.94 37.415H853.985C855.184 37.415 855.983 38.2138 855.983 39.4121V54.9902C855.983 56.1885 855.184 56.9873 853.985 56.9873H838.94C837.875 56.9873 836.942 57.9193 836.942 58.9844V64.9766C836.943 66.0416 837.875 66.9736 838.94 66.9736H866.502C867.7 66.9738 868.499 67.7725 868.499 68.9707V92.5381C868.499 93.7362 867.7 94.535 866.502 94.5352H801.925C800.727 94.5351 799.928 93.7362 799.928 92.5381V3.3291C799.928 2.13083 800.727 1.33112 801.925 1.33105H828.288C828.421 1.33105 828.555 1.33139 828.555 1.19824H864.238ZM35.6836 42.0752C34.6184 42.0752 33.6865 43.0071 33.6865 44.0723V54.8574C33.6868 55.9224 34.6186 56.8545 35.6836 56.8545H39.5449C44.072 56.8545 47.2676 53.6582 47.2676 49.3975C47.2673 45.6695 44.0718 42.0752 39.5449 42.0752H35.6836ZM266.271 27.9609C265.206 27.9611 264.54 28.7605 264.54 29.6924V39.1455C264.54 39.9443 265.206 40.8758 266.271 40.876H269.6C273.461 40.876 276.389 38.0805 276.39 34.3525C276.39 31.157 273.461 27.961 269.6 27.9609H266.271Z" fill="var(--fill-0, white)"/>
</svg>
