<svg width="879" height="182" viewBox="0 0 879 182" fill="none" xmlns="http://www.w3.org/2000/svg">
<path d="M294.163 35.625C298.517 35.6251 301.09 38.1979 301.09 42.5518V174.168C301.09 178.522 298.517 181.095 294.163 181.095H268.434C264.08 181.095 261.506 178.918 261.506 174.168V42.5518C261.506 37.802 264.08 35.625 268.434 35.625H294.163Z" fill="white"/>
<path d="M32.6562 35.625C37.0102 35.625 39.5829 38.1978 39.583 42.5518V143.095C39.5829 147.449 37.0103 150.021 32.6562 150.021H32.458C14.8435 150.021 8.24927e-05 137.553 0 115.584V70.0625C8.93537e-05 48.0938 14.8435 35.6251 32.458 35.625H32.6562Z" fill="white"/>
<path d="M76.1982 4.55176C80.5523 4.55182 83.125 6.72954 83.125 11.4795V143.095C83.1249 147.844 80.5522 150.021 76.1982 150.021H50.4688C46.1147 150.021 43.5421 147.449 43.542 143.095V11.4795C43.542 7.1253 46.1146 4.55176 50.4688 4.55176H76.1982Z" fill="white"/>
<path d="M119.825 35.625C124.179 35.6251 126.752 37.8021 126.752 42.5518V143.095C126.752 147.449 124.179 150.021 119.825 150.021H119.627C102.012 150.021 87.169 139.532 87.1689 118.553V67.0938C87.169 46.1146 102.012 35.6251 119.627 35.625H119.825Z" fill="white"/>
<path d="M163.367 108.062C167.721 108.063 170.294 110.636 170.294 114.99V118.553C170.294 139.532 155.45 150.021 137.836 150.021H137.638C133.284 150.021 130.711 147.449 130.711 143.095V114.99C130.711 110.24 133.284 108.062 137.638 108.062H163.367Z" fill="white"/>
<path d="M206.994 35.625C211.348 35.6251 213.921 37.8021 213.921 42.5518V143.095C213.921 147.449 211.348 150.021 206.994 150.021H206.796C189.181 150.021 174.338 139.532 174.338 118.553V67.0938C174.338 46.1146 189.181 35.625 206.796 35.625H206.994Z" fill="white"/>
<path d="M250.536 108.062C254.89 108.063 257.463 110.636 257.463 114.99V118.553C257.463 139.532 242.619 150.021 225.005 150.021H224.807C220.453 150.021 217.879 147.449 217.879 143.095V114.99C217.879 110.24 220.452 108.062 224.807 108.062H250.536Z" fill="white"/>
<path d="M312.173 35.625C329.787 35.625 344.632 48.0937 344.632 70.0625V115.584C344.632 137.553 329.787 150.021 312.173 150.021H311.976C307.622 150.021 305.048 147.449 305.048 143.095V42.5518C305.048 38.1978 307.622 35.625 311.976 35.625H312.173Z" fill="white"/>
<path d="M392.415 35.625C396.769 35.625 399.342 38.1978 399.342 42.5518V67.4902C399.342 71.8441 396.769 74.417 392.415 74.417H390.436C389.248 74.4171 388.259 75.2086 388.259 76.5938V143.095C388.259 147.449 385.686 150.021 381.332 150.021H355.603C351.248 150.021 348.675 147.844 348.675 143.095V42.5518C348.675 38.1978 351.248 35.625 355.603 35.625H392.415Z" fill="white"/>
<path d="M436.029 4.55176C440.383 4.55176 442.957 7.1253 442.957 11.4795V143.095C442.957 147.449 440.383 150.021 436.029 150.021H410.301C405.947 150.021 403.373 147.449 403.373 143.095V11.4795C403.373 7.1253 405.947 4.55176 410.301 4.55176H436.029Z" fill="white"/>
<path d="M479.518 35.625C483.872 35.6251 486.444 37.802 486.444 42.5518V143.095C486.444 147.449 483.872 150.021 479.518 150.021H479.319C461.705 150.021 446.861 137.553 446.861 115.584V42.5518C446.861 38.1978 449.434 35.625 453.788 35.625H479.518Z" fill="white"/>
<path d="M523.06 35.625C527.414 35.6251 529.986 37.8021 529.986 42.5518V143.095C529.986 147.844 527.414 150.021 523.06 150.021H497.33C492.976 150.021 490.403 147.449 490.403 143.095V42.5518C490.403 38.1978 492.976 35.625 497.33 35.625H523.06Z" fill="white"/>
<path d="M566.687 35.625C571.04 35.6251 573.613 37.8021 573.613 42.5518V143.095C573.613 147.449 571.04 150.021 566.687 150.021H566.488C548.874 150.021 534.03 139.532 534.03 118.553V67.0938C534.03 46.1146 548.874 35.625 566.488 35.625H566.687Z" fill="white"/>
<path d="M610.229 108.062C614.583 108.063 617.155 110.636 617.155 114.99V118.553C617.155 139.532 602.312 150.021 584.697 150.021H584.499C580.145 150.021 577.572 147.449 577.572 143.095V114.99C577.572 110.24 580.145 108.062 584.499 108.062H610.229Z" fill="white"/>
<path d="M653.855 35.625C658.209 35.6251 660.782 38.1979 660.782 42.5518V143.095C660.782 147.449 658.209 150.021 653.855 150.021H628.126C623.772 150.021 621.199 147.845 621.199 143.095V42.5518C621.199 37.802 623.772 35.625 628.126 35.625H653.855Z" fill="white"/>
<path d="M671.865 35.625C689.48 35.625 704.324 48.0937 704.324 70.0625V143.095C704.324 147.449 701.751 150.021 697.397 150.021H671.668C667.314 150.021 664.74 147.845 664.74 143.095V42.5518C664.74 38.1978 667.314 35.625 671.668 35.625H671.865Z" fill="white"/>
<path d="M741.024 35.625C745.378 35.6251 747.951 38.1979 747.951 42.5518V143.095C747.951 147.449 745.378 150.021 741.024 150.021H740.826C723.212 150.021 708.367 137.553 708.367 115.584V70.0625C708.367 48.0937 723.212 35.625 740.826 35.625H741.024Z" fill="white"/>
<path d="M784.566 94.0107C788.92 94.0109 791.493 96.5837 791.493 100.938V115.584C791.493 137.553 776.649 150.021 759.034 150.021H758.837C754.483 150.021 751.909 147.449 751.909 143.095V100.938C751.909 96.5835 754.483 94.0107 758.837 94.0107H784.566Z" fill="white"/>
<path d="M828.193 35.625C832.547 35.6251 835.12 37.8021 835.12 42.5518V143.095C835.12 147.449 832.547 150.021 828.193 150.021H827.995C810.38 150.021 795.536 139.532 795.536 118.553V67.0938C795.536 46.1146 810.38 35.625 827.995 35.625H828.193Z" fill="white"/>
<path d="M871.735 108.062C876.089 108.063 878.662 110.636 878.662 114.99V118.553C878.662 139.532 863.818 150.021 846.203 150.021H846.006C841.652 150.021 839.078 147.449 839.078 143.095V114.99C839.078 110.24 841.652 108.062 846.006 108.062H871.735Z" fill="white"/>
<path d="M137.836 35.625C155.45 35.6252 170.294 46.1147 170.294 67.0938V72.6357C170.294 93.6148 155.45 104.104 137.836 104.104H137.638C133.284 104.104 130.711 101.928 130.711 97.1777V42.5518C130.711 37.802 133.284 35.625 137.638 35.625H137.836Z" fill="white"/>
<path d="M225.005 35.625C242.619 35.6252 257.463 46.1148 257.463 67.0938V72.6357C257.463 93.6148 242.619 104.104 225.005 104.104H224.807C220.453 104.104 217.879 101.928 217.879 97.1777V42.5518C217.879 37.802 220.453 35.625 224.807 35.625H225.005Z" fill="white"/>
<path d="M584.697 35.625C602.312 35.6252 617.155 46.1148 617.155 67.0938V72.6357C617.155 93.6148 602.312 104.104 584.697 104.104H584.499C580.145 104.104 577.572 101.928 577.572 97.1777V42.5518C577.572 37.802 580.145 35.625 584.499 35.625H584.697Z" fill="white"/>
<path d="M846.203 35.625C863.818 35.625 878.662 46.1146 878.662 67.0938V72.6357C878.662 93.615 863.818 104.104 846.203 104.104H846.006C841.652 104.104 839.078 101.928 839.078 97.1777V42.5518C839.078 37.802 841.652 35.625 846.006 35.625H846.203Z" fill="white"/>
<path d="M759.034 35.625C776.649 35.625 791.493 48.0937 791.493 70.0625V83.125C791.493 87.4791 788.92 90.0526 784.566 90.0527H758.837C754.483 90.0527 751.909 87.4792 751.909 83.125V42.5518C751.909 38.1978 754.483 35.625 758.837 35.625H759.034Z" fill="white"/>
<path d="M392.415 0C396.769 0 399.342 2.17683 399.342 6.92676V24.7393C399.342 29.4893 396.769 31.667 392.415 31.667H355.603C351.248 31.667 348.675 29.4893 348.675 24.7393V21.9688C348.675 7.32283 360.155 0 377.77 0H392.415Z" fill="white"/>
</svg>
